<svg xmlns="http://www.w3.org/2000/svg" viewBox="0 0 18 17" width="18" height="17">
	<style>
		tspan { white-space:pre }
		.shp0 { fill: #ffffff } 
	</style>
	<path id="Forma 1" class="shp0" d="M16.12,1h-14.23c-0.49,0 -0.88,0.4 -0.88,0.88v14.23c0,0.49 0.4,0.88 0.88,0.88h7.66v-6.2h-2.08v-2.42h2.08v-1.78c0,-2.07 1.26,-3.19 3.11,-3.19c0.88,0 1.64,0.07 1.86,0.09v2.16l-1.28,0c-1,0 -1.2,0.48 -1.2,1.18v1.54h2.39l-0.31,2.41h-2.08v6.2h4.08c0.49,0 0.88,-0.4 0.88,-0.88v-14.23c0,-0.49 -0.4,-0.88 -0.88,-0.88z" />
</svg>