<svg xmlns="http://www.w3.org/2000/svg" viewBox="0 0 17 17" width="17" height="17">
	<style>
		tspan { white-space:pre }
		.shp0 { fill: #ffffff } 
	</style>
	<path id="Forma 1" class="shp0" d="M12.58 1L5.42 1C2.98 1 1 2.98 1 5.41L1 12.58C1 15.02 2.98 17 5.42 17L12.58 17C15.02 17 17 15.02 17 12.58L17 5.41C17 2.98 15.02 1 12.58 1ZM15.58 12.58C15.58 14.24 14.24 15.58 12.58 15.58L5.42 15.58C3.76 15.58 2.42 14.24 2.42 12.58L2.42 5.41C2.42 3.76 3.76 2.42 5.42 2.42L12.58 2.42C14.24 2.42 15.58 3.76 15.58 5.41L15.58 12.58L15.58 12.58ZM9 4.88C6.73 4.88 4.88 6.73 4.88 9C4.88 11.27 6.73 13.12 9 13.12C11.27 13.12 13.12 11.27 13.12 9C13.12 6.73 11.27 4.88 9 4.88ZM9 11.7C7.51 11.7 6.3 10.49 6.3 9C6.3 7.51 7.51 6.3 9 6.3C10.49 6.3 11.7 7.51 11.7 9C11.7 10.49 10.49 11.7 9 11.7ZM13.3 3.67C13.02 3.67 12.75 3.78 12.56 3.98C12.37 4.17 12.25 4.44 12.25 4.71C12.25 4.99 12.37 5.26 12.56 5.45C12.75 5.64 13.02 5.76 13.3 5.76C13.57 5.76 13.84 5.64 14.03 5.45C14.23 5.26 14.34 4.99 14.34 4.71C14.34 4.44 14.23 4.17 14.03 3.98C13.84 3.78 13.57 3.67 13.3 3.67Z" />
</svg>