<svg xmlns="http://www.w3.org/2000/svg" viewBox="0 0 18 14" width="18" height="14">
	<style>
		tspan { white-space:pre }
		.shp0 { fill: #ffffff } 
	</style>
	<path id="Forma 1" class="shp0" d="M16.56,1.24c-0.63,0.38 -1.34,0.65 -2.09,0.8c-0.6,-0.64 -1.45,-1.04 -2.4,-1.04c-1.81,0 -3.28,1.47 -3.28,3.28c0,0.26 0.03,0.51 0.08,0.75c-2.73,-0.14 -5.15,-1.44 -6.77,-3.43c-0.28,0.48 -0.44,1.05 -0.44,1.65c0,1.14 0.58,2.14 1.46,2.73c-0.54,-0.02 -1.04,-0.17 -1.49,-0.41v0.04c0,1.59 1.13,2.92 2.63,3.22c-0.27,0.07 -0.56,0.12 -0.86,0.12c-0.21,0 -0.42,-0.02 -0.62,-0.06c0.42,1.3 1.63,2.25 3.07,2.28c-1.12,0.88 -2.54,1.4 -4.08,1.4c-0.27,0 -0.53,-0.02 -0.78,-0.04c1.45,0.93 3.18,1.47 5.03,1.47c6.04,0 9.34,-5 9.34,-9.34l-0.01,-0.43c0.64,-0.46 1.2,-1.04 1.64,-1.7c-0.59,0.26 -1.22,0.44 -1.88,0.52c0.68,-0.41 1.2,-1.05 1.44,-1.82z" />
</svg>