<svg xmlns="http://www.w3.org/2000/svg" viewBox="0 0 16 13" width="16" height="13">
	<style>
		tspan { white-space:pre }
		.shp0 { fill: #ffffff } 
	</style>
	<path id="Forma 1" class="shp0" d="M15.72 2.93C15.53 2.01 14.83 1.34 13.99 1.24C12.01 1 10 1 8 1C6 1 3.99 1 2.01 1.24C1.17 1.34 0.48 2.01 0.28 2.93C0 4.23 0 5.65 0 7C0 8.34 0 9.76 0.28 11.07C0.47 11.98 1.17 12.66 2.01 12.76C3.99 13 6 13 8 13C10 13 12.01 13 13.99 12.76C14.83 12.66 15.52 11.98 15.72 11.07C16 9.76 16 8.34 16 7C16 5.65 16 4.23 15.72 2.93ZM5.93 9.67C5.93 7.77 5.93 5.88 5.93 3.98C7.63 4.93 9.31 5.87 11.02 6.83C9.32 7.78 7.63 8.72 5.93 9.67Z" />
</svg>